<svg width="148" height="43" viewBox="0 0 148 43" fill="none" xmlns="http://www.w3.org/2000/svg">
<mask id="path-1-inside-1_1_203" fill="white">
<path d="M0 0H147.095V43H0V0Z"/>
</mask>
<path d="M147.095 41.4526H0V44.5474H147.095V41.4526Z" fill="#FADF2F" mask="url(#path-1-inside-1_1_203)"/>
<path d="M1.79495 33V12.5747H8.57242V33H1.79495ZM12.1611 33V12.5747H17.9483L25.0352 22.3851V12.5747H31.0699V33H25.2828L18.1958 23.1897V33H12.1611ZM34.6463 33V12.5747H49.9343V17.7739H41.4238V20.8067H49.1916V26.0059H41.4238V33H34.6463ZM62.0666 33.3095C56.2176 33.3095 51.6374 28.7293 51.6374 22.7874C51.6374 16.8455 56.2176 12.2653 62.0666 12.2653C67.9157 12.2653 72.4959 16.8455 72.4959 22.7874C72.4959 28.7293 67.9157 33.3095 62.0666 33.3095ZM62.0666 27.7389C64.233 27.7389 65.2852 25.944 65.2852 22.7874C65.2852 19.6307 64.233 17.8358 62.0666 17.8358C59.9003 17.8358 58.8481 19.6307 58.8481 22.7874C58.8481 25.944 59.9003 27.7389 62.0666 27.7389Z" fill="white"/>
<path d="M88.7619 33.3095C82.4796 33.3095 78.7349 28.5745 78.7349 22.8183C78.7349 16.8145 82.82 12.2653 88.2977 12.2653C91.7947 12.2653 94.7347 14.0912 96.0964 17.3716L93.8063 18.7023C92.6303 15.8242 90.5259 14.6482 88.2048 14.6482C84.2436 14.6482 81.644 17.9596 81.644 22.8493C81.644 27.4604 83.9341 30.9265 88.7 30.9265C89.876 30.9265 91.1448 30.7099 92.0733 30.2457C93.2493 29.6577 93.4659 28.7602 93.4659 27.6152V22.6017H96.2511V30.5242C94.6728 32.2573 91.7328 33.3095 88.7619 33.3095ZM101.003 33V12.5747H106.666C112.02 12.5747 114.96 14.5244 114.96 18.0834C114.96 20.8377 113.072 22.6326 109.699 23.0349V23.0968C112.794 23.3135 114.341 24.4895 114.341 27.8318V29.5958C114.341 31.1432 114.682 32.1954 115.27 33H112.361C111.835 32.3501 111.525 31.3598 111.525 29.7815V28.0794C111.525 25.1394 110.442 24.1181 107.533 24.1181H103.788V33H101.003ZM106.574 14.7411H103.788V22.0446H106.574C110.256 22.0446 112.051 20.8686 112.051 18.3928C112.051 15.9171 110.256 14.7411 106.574 14.7411ZM119.65 33V12.5747H122.435V33H119.65ZM127.81 33V12.5747H134.556C140.715 12.5747 144.614 16.7836 144.614 22.7874C144.614 28.7912 140.715 33 134.556 33H127.81ZM134.433 14.7411H130.595V30.8337H134.433C139.137 30.8337 141.705 27.7699 141.705 22.7874C141.705 17.8048 139.137 14.7411 134.433 14.7411Z" fill="white"/>
</svg>
