<svg width="402" height="754" viewBox="0 0 402 754" fill="none" xmlns="http://www.w3.org/2000/svg">
<path fill-rule="evenodd" clip-rule="evenodd" d="M355.854 64.5419C276.06 0.356365 208.971 6.27755 105.328 0.304652C105.117 0.305415 -291 1.73498 -291 1.73498L-288.274 757.026L-229.816 756.815C-229.816 756.815 -257.362 375.423 258.418 433.356C-74.9121 464.625 127.466 754.523 127.466 754.523L469.557 753.29L283.314 431.597C496.51 385.73 435.436 128.728 355.854 64.5419ZM120.593 311.925L-2.44228 312.369L-3.03542 148.016C59.0185 150.13 80.2988 140.7 126.968 148.882C164.367 161.108 176.014 289.344 120.593 311.925Z" fill="#141202" fill-opacity="0.06"/>
</svg>
