<svg width="17" height="16" viewBox="0 0 17 16" fill="none" xmlns="http://www.w3.org/2000/svg">
<g clip-path="url(#clip0_1_540)">
<path fill-rule="evenodd" clip-rule="evenodd" d="M6.49998 1.33331C6.14636 1.33331 5.80722 1.47379 5.55717 1.72384C5.30712 1.97389 5.16665 2.31302 5.16665 2.66665V3.99998H6.49998V2.66665H13.8333V9.99998H12.5V11.3333H13.8333C14.1869 11.3333 14.5261 11.1928 14.7761 10.9428C15.0262 10.6927 15.1666 10.3536 15.1666 9.99998V2.66665C15.1666 2.31302 15.0262 1.97389 14.7761 1.72384C14.5261 1.47379 14.1869 1.33331 13.8333 1.33331H6.49998ZM3.16665 4.66665C2.81302 4.66665 2.47389 4.80712 2.22384 5.05717C1.97379 5.30722 1.83331 5.64636 1.83331 5.99998V13.3333C1.83331 13.6869 1.97379 14.0261 2.22384 14.2761C2.47389 14.5262 2.81302 14.6666 3.16665 14.6666H10.5C10.8536 14.6666 11.1927 14.5262 11.4428 14.2761C11.6928 14.0261 11.8333 13.6869 11.8333 13.3333V5.99998C11.8333 5.64636 11.6928 5.30722 11.4428 5.05717C11.1927 4.80712 10.8536 4.66665 10.5 4.66665H3.16665ZM3.16665 5.99998H10.5V13.3333H3.16665V5.99998Z" fill="#71717A"/>
</g>
<defs>
<clipPath id="clip0_1_540">
<rect width="16" height="16" fill="white" transform="translate(0.5)"/>
</clipPath>
</defs>
</svg>
