<svg width="402" height="149" viewBox="0 0 402 149" fill="none" xmlns="http://www.w3.org/2000/svg">
<mask id="path-1-inside-1_1_62" fill="white">
<path d="M0 0H402V149H0V0Z"/>
</mask>
<path d="M0 0H402V149H0V0Z" fill="black"/>
<path d="M402 143H0V155H402V143Z" fill="url(#paint0_linear_1_62)" mask="url(#path-1-inside-1_1_62)"/>
<mask id="path-3-inside-2_1_62" fill="white">
<path d="M129 71H276.095V114H129V71Z"/>
</mask>
<path d="M276.095 112.453H129V115.547H276.095V112.453Z" fill="#FADF2F" mask="url(#path-3-inside-2_1_62)"/>
<path d="M130.795 104V83.5747H137.572V104H130.795ZM141.161 104V83.5747H146.948L154.035 93.3851V83.5747H160.07V104H154.283L147.196 94.1897V104H141.161ZM163.646 104V83.5747H178.934V88.7739H170.424V91.8067H178.192V97.0059H170.424V104H163.646ZM191.067 104.309C185.218 104.309 180.637 99.7293 180.637 93.7874C180.637 87.8455 185.218 83.2653 191.067 83.2653C196.916 83.2653 201.496 87.8455 201.496 93.7874C201.496 99.7293 196.916 104.309 191.067 104.309ZM191.067 98.7389C193.233 98.7389 194.285 96.944 194.285 93.7874C194.285 90.6307 193.233 88.8358 191.067 88.8358C188.9 88.8358 187.848 90.6307 187.848 93.7874C187.848 96.944 188.9 98.7389 191.067 98.7389Z" fill="white"/>
<path d="M217.762 104.309C211.48 104.309 207.735 99.5745 207.735 93.8183C207.735 87.8145 211.82 83.2653 217.298 83.2653C220.795 83.2653 223.735 85.0912 225.096 88.3716L222.806 89.7023C221.63 86.8242 219.526 85.6482 217.205 85.6482C213.244 85.6482 210.644 88.9596 210.644 93.8493C210.644 98.4604 212.934 101.927 217.7 101.927C218.876 101.927 220.145 101.71 221.073 101.246C222.249 100.658 222.466 99.7602 222.466 98.6152V93.6017H225.251V101.524C223.673 103.257 220.733 104.309 217.762 104.309ZM230.003 104V83.5747H235.666C241.02 83.5747 243.96 85.5244 243.96 89.0834C243.96 91.8377 242.072 93.6326 238.699 94.0349V94.0968C241.794 94.3135 243.341 95.4895 243.341 98.8318V100.596C243.341 102.143 243.682 103.195 244.27 104H241.361C240.835 103.35 240.525 102.36 240.525 100.781V99.0794C240.525 96.1394 239.442 95.1181 236.533 95.1181H232.788V104H230.003ZM235.574 85.7411H232.788V93.0446H235.574C239.256 93.0446 241.051 91.8686 241.051 89.3928C241.051 86.9171 239.256 85.7411 235.574 85.7411ZM248.65 104V83.5747H251.435V104H248.65ZM256.81 104V83.5747H263.556C269.715 83.5747 273.614 87.7836 273.614 93.7874C273.614 99.7912 269.715 104 263.556 104H256.81ZM263.433 85.7411H259.595V101.834H263.433C268.137 101.834 270.705 98.7699 270.705 93.7874C270.705 88.8048 268.137 85.7411 263.433 85.7411Z" fill="white"/>
<defs>
<linearGradient id="paint0_linear_1_62" x1="0" y1="149" x2="402" y2="149" gradientUnits="userSpaceOnUse">
<stop stop-opacity="0.06"/>
<stop offset="0.505082" stop-color="#FADF2F" stop-opacity="0.79"/>
<stop offset="1" stop-opacity="0.02"/>
</linearGradient>
</defs>
</svg>
