<svg width="17" height="16" viewBox="0 0 17 16" fill="none" xmlns="http://www.w3.org/2000/svg">
<path d="M11.9332 4.66667C11.7564 4.66667 11.5868 4.73691 11.4618 4.86193C11.3368 4.98696 11.2665 5.15653 11.2665 5.33334C11.2665 5.51015 11.3368 5.67972 11.4618 5.80474C11.5868 5.92977 11.7564 6.00001 11.9332 6.00001H12.9905L9.93318 9.05734L7.40451 6.52867C7.27949 6.40369 7.10996 6.33348 6.93318 6.33348C6.7564 6.33348 6.58686 6.40369 6.46185 6.52867L2.12851 10.862C2.06484 10.9235 2.01405 10.9971 1.97911 11.0784C1.94417 11.1597 1.92578 11.2472 1.92501 11.3357C1.92424 11.4243 1.94111 11.512 1.97463 11.594C2.00815 11.6759 2.05765 11.7503 2.12025 11.8129C2.18285 11.8755 2.25728 11.925 2.33921 11.9586C2.42114 11.9921 2.50893 12.0089 2.59745 12.0082C2.68597 12.0074 2.77345 11.989 2.85478 11.9541C2.93612 11.9191 3.00968 11.8683 3.07118 11.8047L6.93318 7.94267L9.46185 10.4713C9.58686 10.5963 9.7564 10.6665 9.93318 10.6665C10.11 10.6665 10.2795 10.5963 10.4045 10.4713L13.9332 6.94267V8.00001C13.9332 8.17682 14.0034 8.34639 14.1284 8.47141C14.2535 8.59643 14.423 8.66667 14.5998 8.66667C14.7767 8.66667 14.9462 8.59643 15.0713 8.47141C15.1963 8.34639 15.2665 8.17682 15.2665 8.00001V5.33334C15.2665 5.15653 15.1963 4.98696 15.0713 4.86193C14.9462 4.73691 14.7767 4.66667 14.5998 4.66667H11.9332Z" fill="#058197"/>
</svg>
